:FULLY-SPECIFIED
:FORCE-ALL-JOINTS-BE-3DOF
:DEGREES
816
root -4.78648 14.7058 -40.2891 29.6667 -74.6545 -20.529
lfemur -69.3158 17.9298 -21.8278
ltibia 81.6414 -0 0
lfoot -7.47389 8.7449 -0.0788051
ltoes -15.1779 0 0
rfemur -32.3637 -7.61237 23.5049
rtibia 71.6328 -0 0
rfoot -32.6998 -27.4369 0.00236112
rtoes -23.2397 0 0
lowerback 18.1146 1.05741 3.29892
upperback 0.501075 2.24702 2.52478
thorax -9.61594 0.945964 0.301683
lowerneck -2.14114 12.8449 4.30595
upperneck -1.55427 17.1078 -9.91685
head 1.20868 8.51464 -3.45007
lclavicle -3.06874e-14 -3.27995e-15 0
lhumerus 102.012 -34.3131 20.8889
lradius 98.0395 -0 0
lwrist 18.7486 0 0
lhand -9.56964 23.7408 0.000670842
lfingers 7.12502 -0 0
lthumb 16.3981 53.0676 0.000644704
rclavicle -3.06874e-14 -3.27995e-15 0
rhumerus 25.2744 37.0391 -56.7944
rradius 64.6003 -0 0
rwrist -10.4893 0 0
rhand -13.0902 -41.0296 -0.00892336
rfingers 7.12502 -0 0
rthumb 13.0057 -70.5947 -0.00625077
817
root -4.72364 14.7059 -40.3141 28.2286 -73.9119 -18.9647
lfemur -70.0281 18.6282 -23.0435
ltibia 83.6511 -0 0
lfoot -7.8652 9.09783 -0.0474253
ltoes -15.5225 0 0
rfemur -32.914 -8.33505 23.6863
rtibia 71.7147 -0 0
rfoot -32.991 -27.4512 0.00142112
rtoes -22.6474 0 0
lowerback 18.1723 0.985271 3.28518
upperback 0.496703 2.15367 2.53484
thorax -9.65672 0.901853 0.340767
lowerneck -2.15627 12.8971 4.29104
upperneck -1.59401 17.1765 -10.0398
head 1.21428 8.54931 -3.48333
lclavicle -3.06874e-14 -3.27995e-15 0
lhumerus 103.514 -34.3901 19.6684
lradius 99.7788 -0 0
lwrist 18.7117 0 0
lhand -9.57451 23.4984 0.000403775
lfingers 7.12502 -0 0
lthumb 16.3934 52.8257 0.000388042
rclavicle -3.06874e-14 -3.27995e-15 0
rhumerus 26.9156 37.8844 -55.9067
rradius 64.6787 -0 0
rwrist -9.93713 0 0
rhand -13.3265 -40.9631 -0.0053709
rfingers 7.12502 -0 0
rthumb 12.7781 -70.5464 -0.0037623
818
root -4.67735 14.7058 -40.3327 27.238 -73.3483 -17.8793
lfemur -70.5745 19.1424 -23.9645
ltibia 85.1583 -0 0
lfoot -8.15854 9.36238 -0.0223094
ltoes -15.7809 0 0
rfemur -33.3289 -8.87591 23.8272
rtibia 71.7762 -0 0
rfoot -33.2094 -27.4619 0.000668577
rtoes -22.2032 0 0
lowerback 18.2156 0.931178 3.27484
upperback 0.493414 2.08365 2.5424
thorax -9.68732 0.868789 0.370099
lowerneck -2.16763 12.9361 4.27984
upperneck -1.62392 17.228 -10.1322
head 1.21847 8.57532 -3.50828
lclavicle -3.06874e-14 -3.27995e-15 0
lhumerus 104.643 -34.4304 18.7509
lradius 101.083 -0 0
lwrist 18.6841 0 0
lhand -9.57816 23.3166 0.000189962
lfingers 7.12502 -0 0
lthumb 16.3899 52.6442 0.000182561
rclavicle -3.06874e-14 -3.27995e-15 0
rhumerus 28.1698 38.5048 -55.2141
rradius 64.7375 -0 0
rwrist -9.52303 0 0
rhand -13.5037 -40.9133 -0.00252682
rfingers 7.12502 -0 0
rthumb 12.6075 -70.5102 -0.00177004
819
root -4.64874 14.7057 -40.3442 26.6508 -72.9917 -17.2325
lfemur -70.9231 19.4612 -24.5472
ltibia 86.1052 -0 0
lfoot -8.34277 9.52851 -0.00583901
ltoes -15.9433 0 0
rfemur -33.5905 -9.21516 23.9179
rtibia 71.8148 -0 0
rfoot -33.3466 -27.4686 0.000174997
rtoes -21.9241 0 0
lowerback 18.2428 0.8972 3.26832
upperback 0.491342 2.03967 2.54714
thorax -9.70656 0.848025 0.388535
lowerneck -2.17477 12.9607 4.2728
upperneck -1.64276 17.2604 -10.1902
head 1.22109 8.59166 -3.52395
lclavicle -3.06874e-14 -3.27995e-15 0
lhumerus 105.353 -34.4481 18.174
lradius 101.903 -0 0
lwrist 18.6667 0 0
lhand -9.58045 23.2024 4.97223e-05
lfingers 7.12502 -0 0
lthumb 16.3877 52.5302 4.7785e-05
rclavicle -3.06874e-14 -3.27995e-15 0
rhumerus 28.9681 38.8884 -54.7671
rradius 64.7744 -0 0
rwrist -9.26288 0 0
rhand -13.615 -40.8821 -0.000661391
rfingers 7.12502 -0 0
rthumb 12.5003 -70.4874 -0.000463306
820
root -3.77527 14.776 -40.4307 26.453 -72.8675 -17.014
lfemur -71.045 19.571 -24.7501
ltibia 86.4337 0 0
lfoot -8.40667 9.58613 0
ltoes -15.9996 0 0
rfemur -33.6815 -9.33276 23.9497
rtibia 71.8282 0 0
rfoot -33.3942 -27.4709 0
rtoes -21.8273 0 0
lowerback 18.2522 0.885413 3.26605
upperback 0.490623 2.02441 2.54879
thorax -9.71323 0.840823 0.394933
lowerneck -2.17725 12.9692 4.27036
upperneck -1.64931 17.2716 -10.2103
head 1.222 8.59733 -3.52939
lclavicle -2.64384e-14 1.59028e-15 0
lhumerus 105.599 -34.4529 17.9737
lradius 102.187 0 0
lwrist 18.6607 0 0
lhand -9.58125 23.1628 0
lfingers 7.12502 0 0
lthumb 16.3869 52.4906 0
rclavicle -2.64384e-14 1.59028e-15 0
rhumerus 29.247 39.0203 -54.6099
rradius 64.7872 0 0
rwrist -9.17263 0 0
rhand -13.6536 -40.8712 0
rfingers 7.12502 0 0
rthumb 12.4631 -70.4795 0
821
root -3.65455 14.7865 -40.4406 25.8279 -72.5286 -16.4697
lfemur -70.3444 19.7832 -23.8871
ltibia 85.7421 -0 0
lfoot -7.9711 9.76397 0.0234677
ltoes -15.6024 0 0
rfemur -33.6631 -9.5391 23.7933
rtibia 71.7744 -0 0
rfoot -33.2138 -27.468 0.000156533
rtoes -21.7693 0 0
lowerback 18.2343 0.923206 3.26293
upperback 0.459311 2.07445 2.5365
thorax -9.73649 0.864445 0.370203
lowerneck -2.23245 12.9049 4.28313
upperneck -1.50558 17.1934 -10.1252
head 1.26621 8.5542 -3.50195
lclavicle -2.64384e-14 1.59028e-15 0
lhumerus 104.666 -34.6801 18.0168
lradius 102.826 -0 0
lwrist 18.1866 0 0
lhand -9.67571 23.3208 -0.00449621
lfingers 7.12502 -0 0
lthumb 16.2959 52.6553 -0.00451488
rclavicle -2.64384e-14 1.59028e-15 0
rhumerus 29.3418 39.8311 -54.0658
rradius 65.5344 -0 0
rwrist -8.52253 0 0
rhand -13.0863 -40.3278 0.0945726
rfingers 7.12502 -0 0
rthumb 13.0061 -69.8688 0.101885
822
root -3.5392 14.7979 -40.4471 25.0556 -72.0898 -15.8016
lfemur -69.4362 20.0416 -22.7704
ltibia 84.8517 -0 0
lfoot -7.41025 9.99317 0.051687
ltoes -15.091 0 0
rfemur -33.6385 -9.80466 23.5916
rtibia 71.7052 -0 0
rfoot -32.9815 -27.4643 0.000344691
rtoes -21.6947 0 0
lowerback 18.2113 0.971858 3.25889
upperback 0.418985 2.13885 2.52064
thorax -9.76645 0.89484 0.338352
lowerneck -2.30352 12.8221 4.29966
upperneck -1.32082 17.0925 -10.016
head 1.32308 8.49865 -3.46667
lclavicle -2.64384e-14 1.59028e-15 0
lhumerus 103.46 -34.9716 18.079
lradius 103.648 -0 0
lwrist 17.5763 0 0
lhand -9.79734 23.5242 -0.00990083
lfingers 7.12502 -0 0
lthumb 16.1787 52.8673 -0.00994197
rclavicle -2.64384e-14 1.59028e-15 0
rhumerus 29.4806 40.8738 -53.353
rradius 66.4964 -0 0
rwrist -7.68562 0 0
rhand -12.3546 -39.6268 0.208383
rfingers 7.12502 -0 0
rthumb 13.7067 -69.0813 0.224507
823
root -3.42927 14.81 -40.4503 24.1763 -71.5613 -15.0471
lfemur -68.341 20.3289 -21.4265
ltibia 83.7864 -0 0
lfoot -6.7391 10.2677 0.0824993
ltoes -14.4792 0 0
rfemur -33.6078 -10.1223 23.35
rtibia 71.6224 -0 0
rfoot -32.7036 -27.4599 0.000550052
rtoes -21.6054 0 0
lowerback 18.1837 1.03006 3.25403
upperback 0.370712 2.2159 2.5016
thorax -9.80231 0.931184 0.300224
lowerneck -2.38855 12.7231 4.31957
upperneck -1.10016 16.9713 -9.8859
head 1.39107 8.43214 -3.42455
lclavicle -2.64384e-14 1.59028e-15 0
lhumerus 102.012 -35.319 18.1637
lradius 104.632 -0 0
lwrist 16.846 0 0
lhand -9.94288 23.7676 -0.0157996
lfingers 7.12502 -0 0
lthumb 16.0385 53.121 -0.0158653
rclavicle -2.64384e-14 1.59028e-15 0
rhumerus 29.6725 42.1195 -52.4805
rradius 67.6473 -0 0
rwrist -6.68432 0 0
rhand -11.4775 -38.7863 0.332763
rfingers 7.12502 -0 0
rthumb 14.5471 -68.1371 0.358533
824
root -3.32481 14.8226 -40.4507 23.2274 -70.9538 -14.2409
lfemur -67.0796 20.6271 -19.8823
ltibia 82.57 -0 0
lfoot -5.97262 10.5817 0.113745
ltoes -13.7806 0 0
rfemur -33.5711 -10.4848 23.0736
rtibia 71.5279 -0 0
rfoot -32.3863 -27.4548 0.000758208
rtoes -21.5034 0 0
lowerback 18.1522 1.09652 3.24845
upperback 0.315559 2.30385 2.47978
thorax -9.8433 0.972652 0.256661
lowerneck -2.48564 12.6101 4.34248
upperneck -0.848742 16.8323 -9.73803
head 1.46862 8.35614 -3.37656
lclavicle -2.64384e-14 1.59028e-15 0
lhumerus 100.349 -35.7132 18.2739
lradius 105.756 -0 0
lwrist 16.0123 0 0
lhand -10.1091 24.0456 -0.0217787
lfingers 7.12502 -0 0
lthumb 15.8784 53.4107 -0.0218693
rclavicle -2.64384e-14 1.59028e-15 0
rhumerus 29.9284 43.5388 -51.4556
rradius 68.9613 -0 0
rwrist -5.54104 0 0
rhand -10.4739 -37.8245 0.459011
rfingers 7.12502 -0 0
rthumb 15.5092 -67.0568 0.494588
825
root -3.22588 14.8357 -40.4485 22.2417 -70.2779 -13.413
lfemur -65.6742 20.9193 -18.1656
ltibia 81.2265 -0 0
lfoot -5.1258 10.9289 0.143373
ltoes -13.009 0 0
rfemur -33.5285 -10.8849 22.7677
rtibia 71.4235 -0 0
rfoot -32.0359 -27.4492 0.000955503
rtoes -21.3908 0 0
lowerback 18.1174 1.16992 3.24225
upperback 0.254596 2.40097 2.45558
thorax -9.8886 1.01842 0.208507
lowerneck -2.59289 12.4853 4.36799
upperneck -0.57168 16.6781 -9.57557
head 1.55419 8.27211 -3.32369
lclavicle -2.64384e-14 1.59028e-15 0
lhumerus 98.5022 -36.1455 18.4128
lradius 106.996 -0 0
lwrist 15.0913 0 0
lhand -10.2927 24.3526 -0.0274458
lfingers 7.12502 -0 0
lthumb 15.7015 53.7307 -0.02756
rclavicle -2.64384e-14 1.59028e-15 0
rhumerus 30.26 45.1024 -50.2838
rradius 70.4128 -0 0
rwrist -4.2782 0 0
rhand -9.36308 -36.7596 0.578835
rfingers 7.12502 -0 0
rthumb 16.5747 -65.8611 0.623736
826
root -3.13253 14.8491 -40.4441 21.2465 -69.545 -12.5883
lfemur -64.148 21.1896 -16.3053
ltibia 79.7796 -0 0
lfoot -4.21365 11.3032 0.169536
ltoes -12.178 0 0
rfemur -33.48 -11.3156 22.4374
rtibia 71.311 -0 0
rfoot -31.6584 -27.4432 0.00112966
rtoes -21.2695 0 0
lowerback 18.08 1.24897 3.23551
upperback 0.188893 2.50553 2.4294
thorax -9.93743 1.06767 0.156608
lowerneck -2.70839 12.351 4.39573
upperneck -0.274067 16.5112 -9.40163
head 1.64624 8.18154 -3.2669
lclavicle -2.64384e-14 1.59028e-15 0
lhumerus 96.5003 -36.6067 18.5825
lradius 108.333 -0 0
lwrist 14.0995 0 0
lhand -10.4905 24.6832 -0.0324485
lfingers 7.12502 -0 0
lthumb 15.511 54.0754 -0.0325835
rclavicle -2.64384e-14 1.59028e-15 0
rhumerus 30.6799 46.7802 -48.9697
rradius 71.976 -0 0
rwrist -2.91822 0 0
rhand -8.16449 -35.6105 0.684741
rfingers 7.12502 -0 0
rthumb 17.7249 -64.5709 0.737896
